<?xml version="1.0" encoding="utf-8"?>
<!-- Generator: Adobe Illustrator 23.0.6, SVG Export Plug-In . SVG Version: 6.00 Build 0)  -->
<svg version="1.1" id="Lager_1" xmlns="http://www.w3.org/2000/svg" xmlns:xlink="http://www.w3.org/1999/xlink" x="0px" y="0px"
	 viewBox="0 0 24 24" style="enable-background:new 0 0 24 24;" xml:space="preserve">
<path d="M17,19.2H5V7h7V5H5C3.9,5,3,5.9,3,7v12c0,1.1,0.9,2,2,2h12c1.1,0,2-0.9,2-2v-7h-2V19.2z M19,2h-2v3h-3v2h3v3h2V7h3V5h-3V2z
	 M7,9h8v2H7V9z M7,12v2h8v-2h-3H7z M7,15h8v2H7V15z"/>
</svg>
