<?xml version="1.0" encoding="utf-8"?>
<!-- Generator: Adobe Illustrator 23.0.6, SVG Export Plug-In . SVG Version: 6.00 Build 0)  -->
<svg version="1.1" id="Lager_1" xmlns="http://www.w3.org/2000/svg" xmlns:xlink="http://www.w3.org/1999/xlink" x="0px" y="0px"
	 viewBox="0 0 24 24" style="enable-background:new 0 0 24 24;" xml:space="preserve">
<path d="M21.6,14.7L19.4,13c0-0.3,0-0.7,0-1s0-0.7-0.1-1l2.1-1.7c0.1-0.1,0.3-0.4,0.1-0.6l-2-3.4C19.4,5,19.3,4.9,19,5l-2.4,1
	c-0.6-0.4-1.1-0.7-1.7-1l-0.1-2.6C14.6,2.1,14.4,2,14.1,2h-4C9.9,2,9.6,2.1,9.6,2.4L9.1,5C8.6,5.3,8,5.7,7.3,6L4.9,5
	C4.7,5,4.4,5,4.3,5.3l-2,3.4C2.1,9,2.3,9.1,2.6,9.4l2.1,1.7c-0.1,0.3-0.1,0.7-0.1,1c0,0.3,0.1,0.7,0.1,1l-2.1,1.7
	c-0.3,0.1-0.3,0.4-0.1,0.6l2,3.4C4.6,19,4.7,19.1,5,19l2.4-1c0.6,0.4,1.1,0.7,1.7,1l0.3,2.6C9.6,21.9,9.7,22,10,22h4
	c0.3,0,0.6-0.1,0.6-0.4l0.4-2.7c0.6-0.3,1.1-0.6,1.7-1l2.4,1c0.1,0.1,0.4,0,0.6-0.1l2-3.4C21.9,15.1,21.7,14.9,21.6,14.7z M12,14.9
	c-1.6,0-2.9-1.3-2.9-2.9s1.3-2.9,2.9-2.9s2.9,1.3,2.9,2.9S13.6,14.9,12,14.9z"/>
</svg>
