<?xml version="1.0" encoding="utf-8"?>
<!-- Generator: Adobe Illustrator 23.0.6, SVG Export Plug-In . SVG Version: 6.00 Build 0)  -->
<svg version="1.1" id="Lager_1" xmlns="http://www.w3.org/2000/svg" xmlns:xlink="http://www.w3.org/1999/xlink" x="0px" y="0px"
	 viewBox="0 0 24 24" style="enable-background:new 0 0 24 24;" xml:space="preserve">
<path d="M6.2,14L7.4,16c0.1,0.1,0.2,0.2,0.4,0.1l1.5-0.6c0.3,0.2,0.6,0.4,1,0.6l0.2,1.6c0,0.1,0.1,0.2,0.3,0.2h2.4
	c0.1,0,0.3-0.1,0.3-0.3l0.2-1.6c0.4-0.1,0.7-0.4,1-0.6l1.5,0.6c0.1,0,0.3,0,0.4-0.1l1.2-2.1c0.1-0.1,0-0.3-0.1-0.4l-1.3-1
	c0-0.2,0-0.4,0-0.6c0-0.2,0-0.4,0-0.6l1.3-1c0.1-0.1,0.1-0.3,0.1-0.4L16.6,8c-0.1-0.1-0.2-0.2-0.4-0.1l-1.5,0.6
	c-0.3-0.2-0.6-0.4-1-0.6l-0.2-1.6c0-0.1-0.1-0.2-0.3-0.2h-2.4c-0.1,0-0.3,0.1-0.3,0.3l-0.2,1.6C9.9,8,9.6,8.2,9.3,8.4L7.8,7.8
	C7.6,7.8,7.5,7.8,7.4,8L6.2,10c-0.1,0.1,0,0.3,0.1,0.4l1.3,1c0,0.2-0.1,0.4-0.1,0.6s0,0.4,0,0.6l-1.3,1C6.2,13.7,6.1,13.8,6.2,14z
	 M12,10.3c0.9,0,1.7,0.8,1.7,1.7s-0.8,1.7-1.7,1.7s-1.7-0.8-1.7-1.7S11.1,10.3,12,10.3z M19,3H5C3.9,3,3,3.9,3,5v14c0,1.1,0.9,2,2,2
	h14c1.1,0,2-0.9,2-2V5C21,3.9,20.1,3,19,3z M19,19H5V5h14V19z"/>
</svg>
