<?xml version="1.0" encoding="utf-8"?>
<!-- Generator: Adobe Illustrator 23.0.6, SVG Export Plug-In . SVG Version: 6.00 Build 0)  -->
<svg version="1.1" id="Lager_1" xmlns="http://www.w3.org/2000/svg" xmlns:xlink="http://www.w3.org/1999/xlink" x="0px" y="0px"
	 viewBox="0 0 24 24" style="enable-background:new 0 0 24 24;" xml:space="preserve">
<g>
	<path d="M14,2h-4C9.8,2,9.5,2.2,9.5,2.4L9.1,5.1C8.5,5.3,8,5.7,7.4,6.1L5,5.1C4.9,5,4.8,5,4.8,5C4.6,5,4.4,5.1,4.3,5.3l-2,3.5
		C2.2,8.9,2.3,9.2,2.5,9.4L4.6,11c0,0.3-0.1,0.6-0.1,1s0,0.7,0.1,1l-2.1,1.7c-0.2,0.2-0.2,0.4-0.1,0.6l2,3.5C4.4,18.9,4.6,19,4.8,19
		c0.1,0,0.1,0,0.2,0l2.5-1c0.5,0.4,1.1,0.7,1.7,1l0.4,2.6c0,0.2,0.3,0.4,0.5,0.4h4c0.2,0,0.5-0.2,0.5-0.4l0.4-2.6
		c0.6-0.3,1.2-0.6,1.7-1l2.5,1c0.1,0,0.1,0,0.2,0c0.2,0,0.3-0.1,0.4-0.2l2-3.5c0.1-0.2,0.1-0.5-0.1-0.6L19.4,13c0-0.3,0.1-0.6,0.1-1
		s0-0.7-0.1-1l2.1-1.7c0.2-0.2,0.2-0.4,0.1-0.6l-2-3.5C19.6,5.1,19.4,5,19.2,5c-0.1,0-0.1,0-0.2,0l-2.5,1c-0.5-0.4-1.1-0.7-1.7-1
		l-0.4-2.6C14.5,2.2,14.2,2,14,2L14,2z M12,14.9c-1.6,0-2.9-1.3-2.9-2.9s1.3-2.9,2.9-2.9s2.9,1.3,2.9,2.9S13.6,14.9,12,14.9L12,14.9
		z"/>
</g>
</svg>
