<?xml version="1.0" encoding="utf-8"?>
<!-- Generator: Adobe Illustrator 23.0.6, SVG Export Plug-In . SVG Version: 6.00 Build 0)  -->
<svg version="1.1" id="Lager_1" xmlns="http://www.w3.org/2000/svg" xmlns:xlink="http://www.w3.org/1999/xlink" x="0px" y="0px"
	 viewBox="0 0 24 24" style="enable-background:new 0 0 24 24;" xml:space="preserve">
<g>
	<path d="M12,7.6l1,2.3l0.5,1.1l1.2,0.1l2.5,0.2L15.2,13l-0.9,0.8l0.3,1.2l0.6,2.4L13,16.1l-1-0.6l-1,0.6l-2.1,1.3l0.6-2.4l0.3-1.2
		L8.8,13l-1.9-1.6l2.5-0.2l1.2-0.1L11,9.9L12,7.6 M12,2.5L9.2,9.1L2,9.7l5.5,4.7l-1.6,7l6.2-3.7l6.2,3.7l-1.6-7L22,9.7l-7.2-0.6
		L12,2.5L12,2.5z"/>
</g>
</svg>
