<?xml version="1.0" encoding="utf-8"?>
<!-- Generator: Adobe Illustrator 23.0.6, SVG Export Plug-In . SVG Version: 6.00 Build 0)  -->
<svg version="1.1" id="Lager_1" xmlns="http://www.w3.org/2000/svg" xmlns:xlink="http://www.w3.org/1999/xlink" x="0px" y="0px"
	 viewBox="0 0 24 24" style="enable-background:new 0 0 24 24;" xml:space="preserve">
<path d="M9.8,15.5H4.5l-1.1,3.2H1L6.1,5.1h2.1l5.1,13.5h-2.5L9.8,15.5z M5.2,13.6h3.9L7.2,8L5.2,13.6z M20.7,18.7
	c-0.1-0.2-0.2-0.5-0.3-0.9c-0.7,0.8-1.6,1.1-2.6,1.1c-1,0-1.8-0.3-2.5-0.9c-0.6-0.6-1-1.3-1-2.1c0-1.1,0.4-1.9,1.2-2.5
	s1.9-0.9,3.4-0.9h1.4v-0.7c0-0.5-0.1-0.9-0.4-1.3s-0.7-0.5-1.3-0.5c-0.5,0-0.9,0.1-1.3,0.4s-0.5,0.6-0.5,1h-2.3
	c0-0.6,0.2-1.1,0.5-1.5s0.9-0.9,1.5-1.1c0.6-0.3,1.3-0.4,2.1-0.4c1.2,0,2.1,0.3,2.8,0.9c0.7,0.6,1.1,1.4,1.1,2.5v4.5
	c0,0.9,0.1,1.6,0.4,2.2v0.2H20.7z M18.2,17.1c0.4,0,0.9-0.1,1.3-0.3c0.4-0.2,0.7-0.5,0.9-0.9V14h-1.2c-0.8,0-1.5,0.1-1.9,0.4
	c-0.4,0.3-0.6,0.7-0.6,1.2c0,0.4,0.1,0.8,0.4,1C17.3,16.9,17.7,17.1,18.2,17.1z"/>
</svg>
